Coordinates
version=1
nRows=19
nColumns=24
inDegrees=yes

Units are S.I. units (second, meters, Newtons, ...)
Angles are in degrees.

endheader
time	pelvis_tilt	pelvis_list	pelvis_rotation	pelvis_tx	pelvis_ty	pelvis_tz	hip_flexion_r	hip_adduction_r	hip_rotation_r	knee_angle_r	ankle_angle_r	subtalar_angle_r	mtp_angle_r	hip_flexion_l	hip_adduction_l	hip_rotation_l	knee_angle_l	ankle_angle_l	subtalar_angle_l	mtp_angle_l	lumbar_extension	lumbar_bending	lumbar_rotation
      1.29150000	      1.11202278	      3.58205483	      0.87409468	      0.17114311	      1.00654305	      0.29967180	     15.69528603	     -3.52078869	     -0.44778084	    -68.09988652	     -6.71511920	    -15.01675802	      0.12678355	      7.35187646	      8.65242758	      1.79096274	    -11.52103741	     -0.45718996	    -10.85339850	      2.43486343	     -2.28973768	     -1.77233106	      2.30304888
      1.29566667	      1.21097101	      3.50255143	      0.93711575	      0.17622535	      1.00734116	      0.29937315	     16.13458470	     -3.41133020	     -0.37321546	    -67.95359177	     -5.96325638	    -15.28482164	      0.01061342	      6.74597886	      8.58384446	      1.96838571	    -11.20490462	     -0.33883030	    -10.86214099	      2.40101432	     -2.41458645	     -1.68729424	      2.18157419
      1.29983333	      1.25137964	      3.40344031	      1.01495623	      0.18127054	      1.00800814	      0.29905903	     16.62979399	     -3.28766267	     -0.31944404	    -67.76108534	     -5.21175518	    -15.48079215	     -0.04505702	      6.23422894	      8.49294306	      2.12968486	    -10.94723480	     -0.19891337	    -10.83554134	      2.38374775	     -2.46407228	     -1.54915098	      2.12922261
      1.30400000	      1.32734385	      3.30508805	      1.08891478	      0.18631308	      1.00871184	      0.29875994	     17.06831114	     -3.16133191	     -0.26391286	    -67.50719615	     -4.47833092	    -15.70286697	     -0.10835633	      5.67826598	      8.40059004	      2.30189085	    -10.67617275	     -0.06085306	    -10.81622619	      2.36249539	     -2.56023158	     -1.42745284	      2.05387563
      1.30816667	      1.41664205	      3.22428496	      1.15602321	      0.19136511	      1.00939706	      0.29847344	     17.47812109	     -3.05539618	     -0.20334989	    -67.20056805	     -3.79184099	    -15.96306778	     -0.24413322	      5.09478861	      8.32635440	      2.49059357	    -10.37720005	      0.06061025	    -10.84852210	      2.31295682	     -2.66522549	     -1.34659500	      1.92886404
      1.31233333	      1.46633093	      3.10347883	      1.24274423	      0.19638013	      1.01000176	      0.29817488	     17.91447728	     -2.91265990	     -0.17412225	    -66.83191857	     -3.11230559	    -16.14058365	     -0.30671268	      4.58870663	      8.20606605	      2.66376747	    -10.14409557	      0.20404775	    -10.82927657	      2.28903602	     -2.72670137	     -1.18928932	      1.88027834
      1.31650000	      1.54157306	      3.01755196	      1.31214202	      0.20137243	      1.01058813	      0.29790305	     18.31730149	     -2.79937882	     -0.11380925	    -66.42702469	     -2.45706795	    -16.37832956	     -0.42904405	      4.04144857	      8.12233985	      2.85516746	     -9.87812991	      0.34346235	    -10.84205883	      2.23937060	     -2.83714229	     -1.09399356	      1.77212063
      1.32066667	      1.57709309	      2.89657694	      1.40228101	      0.20637844	      1.01110837	      0.29760016	     18.73827167	     -2.66189802	     -0.09431138	    -65.95171249	     -1.82949812	    -16.54853427	     -0.48610911	      3.55775986	      7.99884352	      3.02346805	     -9.65329025	      0.49162173	    -10.82528544	      2.21523194	     -2.87375532	     -0.92979966	      1.72512767
      1.32483333	      1.67200374	      2.80291000	      1.47875305	      0.21137747	      1.01167313	      0.29734395	     19.07870896	     -2.54491272	     -0.05494214	    -65.42574950	     -1.22072080	    -16.79437033	     -0.61521893	      2.99707319	      7.90037567	      3.20516259	     -9.40062345	      0.63578499	    -10.84779468	      2.15791077	     -2.98393991	     -0.84380648	      1.61015554
      1.32900000	      1.75520830	      2.69278355	      1.56144641	      0.21635768	      1.01219773	      0.29706196	     19.41655533	     -2.41832364	     -0.03472130	    -64.84228664	     -0.69064559	    -17.01624564	     -0.98625066	      2.44030897	      7.78597607	      3.42522233	     -9.12164117	      0.71604805	    -10.91191366	      1.98589399	     -3.10378658	     -0.69272520	      1.46838084
      1.33316667	      1.77449683	      2.59666682	      1.64393707	      0.22132897	      1.01257386	      0.29679232	     19.81696907	     -2.31066213	     -0.01001421	    -64.23076858	     -0.10506052	    -17.15558757	     -1.05481022	      1.99665854	      7.68284343	      3.56749337	     -8.93653200	      0.92195615	    -10.88272216	      1.95578105	     -3.12338396	     -0.57770249	      1.45070150
      1.33733333	      1.83591995	      2.49098943	      1.72627883	      0.22628672	      1.01298705	      0.29654759	     20.14859569	     -2.18759669	      0.00956365	    -63.55354036	      0.43336487	    -17.33515110	     -1.13171387	      1.49933519	      7.56425256	      3.71963038	     -8.72671225	      1.09129349	    -10.85692620	      1.92091211	     -3.20255473	     -0.45339637	      1.39466156
      1.34150000	      1.93970979	      2.41256930	      1.78874795	      0.23125314	      1.01341991	      0.29631680	     20.42263341	     -2.09374093	      0.04212793	    -62.83440369	      0.89761514	    -17.57803592	     -1.30996226	      0.92899774	      7.47264217	      3.88023615	     -8.45967106	      1.23949721	    -10.86175733	      1.83676643	     -3.34390929	     -0.35598626	      1.27373556
      1.34566667	      1.98602060	      2.33141196	      1.86668417	      0.23619821	      1.01371922	      0.29607980	     20.74481463	     -2.00256661	      0.05973052	    -62.07515880	      1.36818521	    -17.76767082	     -1.52007782	      0.44607745	      7.37882693	      4.04259949	     -8.24284813	      1.39794206	    -10.87484799	      1.73628490	     -3.41122514	     -0.25806403	      1.18847910
      1.34983333	      1.99558794	      2.23488045	      1.95597017	      0.24112714	      1.01395190	      0.29584624	     21.08513538	     -1.89729806	      0.06799959	    -61.25435844	      1.80760576	    -17.88937660	     -1.59899591	      0.02462508	      7.26518866	      4.18558941	     -8.06487937	      1.56166306	    -10.84927631	      1.69984729	     -3.42830081	     -0.14291919	      1.15916383
      1.35400000	      2.04985041	      2.14943839	      2.03611271	      0.24606951	      1.01421766	      0.29563325	     21.35740237	     -1.80129821	      0.07584124	    -60.38597853	      2.22433038	    -18.06160674	     -1.69026776	     -0.46173204	      7.15965329	      4.32917921	     -7.85447764	      1.72970947	    -10.82909670	      1.65797105	     -3.50431208	     -0.03885749	      1.09612197
      1.35816667	      2.13455364	      2.07614809	      2.09989849	      0.25102839	      1.01449265	      0.29544256	     21.57876234	     -1.71584687	      0.08982141	    -59.46811586	      2.55183411	    -18.29402627	     -1.86053259	     -1.00201272	      7.06352913	      4.46292472	     -7.60070869	      1.88955797	    -10.81933405	      1.57895933	     -3.61880167	      0.04477533	      0.98309329
      1.36233333	      2.19052730	      2.00495361	      2.17264360	      0.25595678	      1.01468124	      0.29525833	     21.81700829	     -1.63386421	      0.09931136	    -58.51114891	      2.88691257	    -18.47355938	     -2.06061987	     -1.49526878	      6.96871363	      4.60396794	     -7.37571229	      2.04781998	    -10.80515760	      1.48622401	     -3.70312523	      0.12513132	      0.90410813
      1.36650000	      2.14342634	      1.96376362	      2.23597818	      0.26088028	      1.01467336	      0.29508168	     22.16539732	     -1.58798387	      0.12743791	    -57.53721724	      3.18402269	    -18.54830399	     -2.10515228	     -1.86838497	      6.90993029	      4.73386458	     -7.16831075	      2.20881220	    -10.74889742	      1.46867304	     -3.65219705	      0.17680530	      0.88845081
